<svg width="24" height="24" viewBox="0 0 24 24" fill="none" xmlns="http://www.w3.org/2000/svg">
<path d="M20.947 8.30545C20.9369 7.54807 20.7951 6.79822 20.528 6.08945C20.2964 5.4916 19.9425 4.94864 19.4892 4.49528C19.0358 4.04191 18.4929 3.6881 17.895 3.45645C17.1953 3.1938 16.4562 3.05179 15.709 3.03645C14.747 2.99345 14.442 2.98145 12 2.98145C9.55801 2.98145 9.24501 2.98145 8.29001 3.03645C7.54317 3.0519 6.80436 3.19391 6.10501 3.45645C5.50707 3.68793 4.96403 4.04169 4.51064 4.49508C4.05725 4.94847 3.7035 5.4915 3.47201 6.08945C3.20884 6.78858 3.06713 7.52756 3.05301 8.27445C3.01001 9.23745 2.99701 9.54245 2.99701 11.9844C2.99701 14.4264 2.99701 14.7384 3.05301 15.6944C3.06801 16.4424 3.20901 17.1804 3.47201 17.8814C3.70389 18.4792 4.05791 19.022 4.51145 19.4752C4.96499 19.9284 5.50807 20.282 6.10601 20.5134C6.80344 20.7866 7.54238 20.9388 8.29101 20.9634C9.25401 21.0064 9.55901 21.0194 12.001 21.0194C14.443 21.0194 14.756 21.0194 15.711 20.9634C16.4582 20.9487 17.1974 20.807 17.897 20.5444C18.4947 20.3125 19.0375 19.9586 19.4909 19.5053C19.9442 19.052 20.2981 18.5091 20.53 17.9114C20.793 17.2114 20.934 16.4734 20.949 15.7244C20.992 14.7624 21.005 14.4574 21.005 12.0144C21.003 9.57245 21.003 9.26245 20.947 8.30545V8.30545ZM11.994 16.6024C9.44001 16.6024 7.37101 14.5334 7.37101 11.9794C7.37101 9.42545 9.44001 7.35645 11.994 7.35645C13.2201 7.35645 14.396 7.84351 15.263 8.71049C16.1299 9.57747 16.617 10.7533 16.617 11.9794C16.617 13.2055 16.1299 14.3814 15.263 15.2484C14.396 16.1154 13.2201 16.6024 11.994 16.6024V16.6024ZM16.801 8.26344C16.6594 8.26358 16.5192 8.23578 16.3883 8.18166C16.2575 8.12753 16.1386 8.04813 16.0385 7.948C15.9383 7.84787 15.8589 7.72898 15.8048 7.59813C15.7507 7.46729 15.7229 7.32705 15.723 7.18545C15.723 7.04395 15.7509 6.90383 15.805 6.7731C15.8592 6.64238 15.9385 6.52359 16.0386 6.42354C16.1387 6.32348 16.2574 6.24411 16.3882 6.18997C16.5189 6.13582 16.659 6.10795 16.8005 6.10795C16.942 6.10795 17.0821 6.13582 17.2129 6.18997C17.3436 6.24411 17.4624 6.32348 17.5624 6.42354C17.6625 6.52359 17.7418 6.64238 17.796 6.7731C17.8501 6.90383 17.878 7.04395 17.878 7.18545C17.878 7.78145 17.396 8.26344 16.801 8.26344Z" fill="black"/>
<path d="M11.994 14.9816C13.6525 14.9816 14.997 13.6371 14.997 11.9786C14.997 10.3201 13.6525 8.97559 11.994 8.97559C10.3355 8.97559 8.991 10.3201 8.991 11.9786C8.991 13.6371 10.3355 14.9816 11.994 14.9816Z" fill="black"/>
</svg>
