<svg width="45" height="45" viewBox="0 0 45 45" fill="none" xmlns="http://www.w3.org/2000/svg">
<path d="M22.5001 36C17.8126 36 13.6688 33.6 11.2501 30C11.3063 26.25 18.7501 24.1875 22.5001 24.1875C26.2501 24.1875 33.6938 26.25 33.7501 30C32.5105 31.8458 30.836 33.3584 28.8742 34.4047C26.9124 35.451 24.7234 35.9988 22.5001 36ZM22.5001 9.375C23.9919 9.375 25.4226 9.96763 26.4775 11.0225C27.5324 12.0774 28.1251 13.5082 28.1251 15C28.1251 16.4918 27.5324 17.9226 26.4775 18.9775C25.4226 20.0324 23.9919 20.625 22.5001 20.625C21.0082 20.625 19.5775 20.0324 18.5226 18.9775C17.4677 17.9226 16.8751 16.4918 16.8751 15C16.8751 13.5082 17.4677 12.0774 18.5226 11.0225C19.5775 9.96763 21.0082 9.375 22.5001 9.375ZM22.5001 3.75C20.0378 3.75 17.5996 4.23498 15.3247 5.17726C13.0499 6.11953 10.9829 7.50065 9.24181 9.24175C5.7255 12.7581 3.75006 17.5272 3.75006 22.5C3.75006 27.4728 5.7255 32.2419 9.24181 35.7582C10.9829 37.4993 13.0499 38.8805 15.3247 39.8227C17.5996 40.765 20.0378 41.25 22.5001 41.25C27.4729 41.25 32.242 39.2746 35.7583 35.7582C39.2746 32.2419 41.2501 27.4728 41.2501 22.5C41.2501 12.1312 32.8126 3.75 22.5001 3.75Z" fill="white"/>
</svg>
